<svg width="37" height="37" viewBox="0 0 37 37" fill="none" xmlns="http://www.w3.org/2000/svg">
<path d="M13.5 36.2002C11.6371 36.1913 10.1265 34.7216 10.1081 32.9002H16.8581C16.8617 33.3413 16.7757 33.7788 16.605 34.1872C16.1623 35.1805 15.2581 35.905 14.175 36.1342H14.1666H14.1413H14.1109H14.0957C13.8996 36.1741 13.7002 36.1962 13.5 36.2002ZM27 31.2502H0V27.9502L3.375 26.3002V17.2252C3.2861 14.8972 3.82377 12.5873 4.93425 10.5262C6.03963 8.61469 7.92905 7.25734 10.125 6.7972V3.2002H16.875V6.7972C21.2271 7.8103 23.625 11.5129 23.625 17.2252V26.3002L27 27.9502V31.2502Z" fill="#D9D9D9"/>
<circle cx="27.5" cy="8.7002" r="8.1" fill="#4F772D" stroke="white" stroke-width="1.2"/>
</svg>
